<svg width="96" height="18" viewBox="0 0 96 18" fill="none" xmlns="http://www.w3.org/2000/svg">
<rect width="96" height="18" fill="#F5F5F5"/>
<path d="M12.4964 5.32599H10.1058C10.0376 4.93395 9.91193 4.58665 9.72869 4.28409C9.54545 3.97727 9.31747 3.71733 9.04474 3.50426C8.77202 3.29119 8.46094 3.13139 8.11151 3.02486C7.76634 2.91406 7.39347 2.85866 6.9929 2.85866C6.28125 2.85866 5.65057 3.03764 5.10085 3.3956C4.55114 3.74929 4.12074 4.26918 3.80966 4.95526C3.49858 5.63707 3.34304 6.47017 3.34304 7.45455C3.34304 8.45597 3.49858 9.29972 3.80966 9.9858C4.125 10.6676 4.5554 11.1832 5.10085 11.5327C5.65057 11.8778 6.27912 12.0504 6.98651 12.0504C7.37855 12.0504 7.74503 11.9993 8.08594 11.897C8.43111 11.7905 8.74006 11.6349 9.01278 11.4304C9.28977 11.2259 9.52202 10.9744 9.70952 10.6761C9.90128 10.3778 10.0334 10.0369 10.1058 9.65341L12.4964 9.66619C12.407 10.2884 12.2131 10.8722 11.9148 11.4176C11.6207 11.9631 11.2351 12.4446 10.7578 12.8622C10.2805 13.2756 9.7223 13.5994 9.0831 13.8338C8.44389 14.0639 7.73438 14.179 6.95455 14.179C5.80398 14.179 4.77699 13.9126 3.87358 13.38C2.97017 12.8473 2.25852 12.0781 1.73864 11.0724C1.21875 10.0668 0.958807 8.8608 0.958807 7.45455C0.958807 6.04403 1.22088 4.83807 1.74503 3.83665C2.26918 2.83097 2.98295 2.06179 3.88636 1.52912C4.78977 0.996448 5.8125 0.730113 6.95455 0.730113C7.68324 0.730113 8.3608 0.832386 8.98722 1.03693C9.61364 1.24148 10.1719 1.5419 10.6619 1.93821C11.152 2.33026 11.5547 2.81179 11.87 3.38281C12.1896 3.94957 12.3984 4.5973 12.4964 5.32599ZM16.8798 8.24716V14H14.5659V0.909091H16.8287V5.85014H16.9437C17.1738 5.29616 17.5297 4.85937 18.0112 4.53977C18.497 4.21591 19.1149 4.05398 19.8649 4.05398C20.5467 4.05398 21.1412 4.19673 21.6483 4.48224C22.1554 4.76776 22.5474 5.18537 22.8244 5.73509C23.1056 6.2848 23.2463 6.95597 23.2463 7.74858V14H20.9324V8.10653C20.9324 7.44602 20.7619 6.93253 20.421 6.56605C20.0843 6.19531 19.6113 6.00994 19.002 6.00994C18.5929 6.00994 18.2264 6.09943 17.9025 6.27841C17.5829 6.45312 17.3315 6.70668 17.1483 7.03906C16.9693 7.37145 16.8798 7.77415 16.8798 8.24716ZM28.4302 14.1982C27.8081 14.1982 27.2477 14.0874 26.7491 13.8658C26.2548 13.6399 25.8627 13.3075 25.573 12.8686C25.2875 12.4297 25.1447 11.8885 25.1447 11.245C25.1447 10.6911 25.247 10.233 25.4515 9.87074C25.6561 9.50852 25.9352 9.21875 26.2889 9.00142C26.6426 8.78409 27.041 8.62003 27.4842 8.50923C27.9316 8.39418 28.394 8.31108 28.8713 8.25994C29.4466 8.20028 29.9132 8.14702 30.2711 8.10014C30.6291 8.04901 30.889 7.9723 31.051 7.87003C31.2172 7.76349 31.3002 7.59943 31.3002 7.37784V7.33949C31.3002 6.85795 31.1575 6.48509 30.872 6.22088C30.5865 5.95668 30.1752 5.82457 29.6383 5.82457C29.0716 5.82457 28.622 5.94815 28.2896 6.19531C27.9615 6.44247 27.7399 6.73437 27.6248 7.07102L25.4643 6.7642C25.6348 6.16761 25.916 5.66903 26.3081 5.26847C26.7001 4.86364 27.1795 4.56108 27.7463 4.3608C28.313 4.15625 28.9395 4.05398 29.6255 4.05398C30.0985 4.05398 30.5694 4.10938 31.0382 4.22017C31.5069 4.33097 31.9352 4.5142 32.323 4.76989C32.7108 5.02131 33.0218 5.36435 33.2562 5.79901C33.4949 6.23366 33.6142 6.77699 33.6142 7.42898V14H31.3897V12.6513H31.313C31.1724 12.924 30.9743 13.1797 30.7186 13.4183C30.4672 13.6527 30.1497 13.8423 29.7662 13.9872C29.3869 14.1278 28.9416 14.1982 28.4302 14.1982ZM29.0311 12.4979C29.4956 12.4979 29.8983 12.4062 30.2392 12.223C30.5801 12.0355 30.8422 11.7884 31.0254 11.4815C31.2129 11.1747 31.3066 10.8402 31.3066 10.478V9.32102C31.2342 9.38068 31.1106 9.43608 30.9359 9.48722C30.7654 9.53835 30.5737 9.5831 30.3606 9.62145C30.1475 9.6598 29.9366 9.69389 29.7278 9.72372C29.519 9.75355 29.3379 9.77912 29.1845 9.80043C28.8393 9.8473 28.5304 9.92401 28.2576 10.0305C27.9849 10.1371 27.7697 10.2862 27.612 10.478C27.4544 10.6655 27.3755 10.9084 27.3755 11.2067C27.3755 11.6328 27.5311 11.9545 27.8422 12.1719C28.1532 12.3892 28.5495 12.4979 29.0311 12.4979ZM40.8436 4.18182V5.97159H35.1994V4.18182H40.8436ZM36.5929 1.82955H38.9068V11.0469C38.9068 11.358 38.9537 11.5966 39.0474 11.7628C39.1454 11.9247 39.2733 12.0355 39.4309 12.0952C39.5886 12.1548 39.7633 12.1847 39.9551 12.1847C40.1 12.1847 40.2321 12.174 40.3514 12.1527C40.475 12.1314 40.5687 12.1122 40.6326 12.0952L41.0226 13.9041C40.899 13.9467 40.7221 13.9936 40.492 14.0447C40.2662 14.0959 39.9892 14.1257 39.661 14.1342C39.0815 14.1513 38.5595 14.0639 38.095 13.8722C37.6305 13.6761 37.2619 13.3736 36.9892 12.9645C36.7207 12.5554 36.5886 12.044 36.5929 11.4304V1.82955ZM51.782 14H47.3459V0.909091H51.8714C53.1712 0.909091 54.2876 1.17116 55.2209 1.69531C56.1584 2.2152 56.8786 2.96307 57.3814 3.93892C57.8842 4.91477 58.1357 6.08239 58.1357 7.44176C58.1357 8.8054 57.8821 9.97727 57.375 10.9574C56.8722 11.9375 56.1456 12.6896 55.1953 13.2138C54.2493 13.7379 53.1115 14 51.782 14ZM49.7173 11.9482H51.6669C52.5788 11.9482 53.3395 11.782 53.9489 11.4496C54.5582 11.1129 55.0163 10.6122 55.3232 9.94744C55.63 9.27841 55.7834 8.44318 55.7834 7.44176C55.7834 6.44034 55.63 5.60937 55.3232 4.94886C55.0163 4.28409 54.5625 3.78764 53.9616 3.45952C53.3651 3.12713 52.6236 2.96094 51.7372 2.96094H49.7173V11.9482ZM64.5692 14.1918C63.6104 14.1918 62.7795 13.9808 62.0763 13.5589C61.3732 13.1371 60.8278 12.5469 60.44 11.7884C60.0565 11.0298 59.8647 10.1435 59.8647 9.12926C59.8647 8.11506 60.0565 7.22656 60.44 6.46378C60.8278 5.70099 61.3732 5.10866 62.0763 4.68679C62.7795 4.26491 63.6104 4.05398 64.5692 4.05398C65.5281 4.05398 66.359 4.26491 67.0621 4.68679C67.7653 5.10866 68.3086 5.70099 68.6921 6.46378C69.0799 7.22656 69.2738 8.11506 69.2738 9.12926C69.2738 10.1435 69.0799 11.0298 68.6921 11.7884C68.3086 12.5469 67.7653 13.1371 67.0621 13.5589C66.359 13.9808 65.5281 14.1918 64.5692 14.1918ZM64.582 12.3381C65.1019 12.3381 65.5366 12.1953 65.886 11.9098C66.2354 11.62 66.4954 11.2322 66.6658 10.7464C66.8406 10.2607 66.9279 9.71946 66.9279 9.12287C66.9279 8.52202 66.8406 7.97869 66.6658 7.4929C66.4954 7.00284 66.2354 6.61293 65.886 6.32315C65.5366 6.03338 65.1019 5.88849 64.582 5.88849C64.0494 5.88849 63.6062 6.03338 63.2525 6.32315C62.9031 6.61293 62.641 7.00284 62.4663 7.4929C62.2958 7.97869 62.2106 8.52202 62.2106 9.12287C62.2106 9.71946 62.2958 10.2607 62.4663 10.7464C62.641 11.2322 62.9031 11.62 63.2525 11.9098C63.6062 12.1953 64.0494 12.3381 64.582 12.3381ZM71.2377 4.18182H73.5517V14.5625C73.5517 15.2699 73.4174 15.8537 73.149 16.3139C72.8805 16.7741 72.4927 17.1172 71.9856 17.343C71.4785 17.5689 70.8627 17.6818 70.1383 17.6818C70.0531 17.6818 69.9743 17.6797 69.9018 17.6754C69.8294 17.6754 69.7505 17.6733 69.6653 17.669V15.7834C69.7292 15.7876 69.7868 15.7898 69.8379 15.7898C69.889 15.794 69.9423 15.7962 69.9977 15.7962C70.4409 15.7962 70.7583 15.6875 70.9501 15.4702C71.1419 15.2571 71.2377 14.9439 71.2377 14.5305V4.18182ZM72.3883 2.78835C72.0176 2.78835 71.7001 2.6669 71.4359 2.42401C71.176 2.17685 71.046 1.88068 71.046 1.53551C71.046 1.18608 71.176 0.889914 71.4359 0.647016C71.7001 0.399857 72.0176 0.276278 72.3883 0.276278C72.7548 0.276278 73.068 0.399857 73.3279 0.647016C73.5922 0.889914 73.7243 1.18608 73.7243 1.53551C73.7243 1.88068 73.5922 2.17685 73.3279 2.42401C73.068 2.6669 72.7548 2.78835 72.3883 2.78835ZM74.7422 14.98H88.7422V0.98H74.7422V14.98Z" fill="#3F3F3F"/>
<path d="M95.5898 0.909091L95.462 10.3182H93.979L93.8512 0.909091H95.5898ZM94.7205 14.1023C94.4052 14.1023 94.1346 13.9893 93.9087 13.7635C93.6829 13.5376 93.57 13.267 93.57 12.9517C93.57 12.6364 93.6829 12.3658 93.9087 12.1399C94.1346 11.9141 94.4052 11.8011 94.7205 11.8011C95.0359 11.8011 95.3065 11.9141 95.5323 12.1399C95.7582 12.3658 95.8711 12.6364 95.8711 12.9517C95.8711 13.1605 95.8178 13.3523 95.7113 13.527C95.609 13.7017 95.4705 13.8423 95.2958 13.9489C95.1254 14.0511 94.9336 14.1023 94.7205 14.1023Z" fill="black"/>
</svg>
